<svg width="39" height="39" viewBox="0 0 39 39" fill="none" xmlns="http://www.w3.org/2000/svg">
<mask id="path-1-inside-1_2345_2662" fill="white">
<path d="M0 14.492C0 6.48831 6.48831 0 14.492 0H24.1534C32.1572 0 38.6455 6.48831 38.6455 14.492V24.1534C38.6455 32.1572 32.1571 38.6455 24.1534 38.6455H14.492C6.48831 38.6455 0 32.1571 0 24.1534V14.492Z"/>
</mask>
<path d="M0 14.492C0 6.48831 6.48831 0 14.492 0H24.1534C32.1572 0 38.6455 6.48831 38.6455 14.492V24.1534C38.6455 32.1572 32.1571 38.6455 24.1534 38.6455H14.492C6.48831 38.6455 0 32.1571 0 24.1534V14.492Z" fill="white"/>
<path d="M14.492 0V0.603835H24.1534V0V-0.603835H14.492V0ZM38.6455 14.492H38.0416V24.1534H38.6455H39.2493V14.492H38.6455ZM24.1534 38.6455V38.0416H14.492V38.6455V39.2493H24.1534V38.6455ZM0 24.1534H0.603835V14.492H0H-0.603835V24.1534H0ZM14.492 38.6455V38.0416C6.82179 38.0416 0.603835 31.8237 0.603835 24.1534H0H-0.603835C-0.603835 32.4906 6.15482 39.2493 14.492 39.2493V38.6455ZM38.6455 24.1534H38.0416C38.0416 31.8237 31.8237 38.0416 24.1534 38.0416V38.6455V39.2493C32.4906 39.2493 39.2493 32.4906 39.2493 24.1534H38.6455ZM24.1534 0V0.603835C31.8237 0.603835 38.0416 6.8218 38.0416 14.492H38.6455H39.2493C39.2493 6.15482 32.4906 -0.603835 24.1534 -0.603835V0ZM14.492 0V-0.603835C6.15482 -0.603835 -0.603835 6.15482 -0.603835 14.492H0H0.603835C0.603835 6.82179 6.8218 0.603835 14.492 0.603835V0Z" fill="#DBEAFE" mask="url(#path-1-inside-1_2345_2662)"/>
<path d="M14.341 26.5688C12.9673 26.5688 11.7936 26.0933 10.8199 25.1423C9.84622 24.1912 9.35938 23.0289 9.35938 21.6551C9.35938 20.4777 9.71413 19.4285 10.4236 18.5076C11.1331 17.5868 12.0615 16.9981 13.2088 16.7414C13.5862 15.3526 14.341 14.228 15.4732 13.3675C16.6054 12.507 17.8885 12.0768 19.3227 12.0768C21.0889 12.0768 22.5871 12.692 23.8175 13.9223C25.0478 15.1526 25.6629 16.6509 25.6629 18.4171C26.7045 18.5378 27.5688 18.9869 28.2556 19.7644C28.9425 20.5418 29.2859 21.4513 29.2859 22.493C29.2859 23.6252 28.8897 24.5875 28.0971 25.38C27.3046 26.1726 26.3422 26.5688 25.21 26.5688H14.341ZM14.341 24.7573H25.21C25.8441 24.7573 26.38 24.5385 26.8178 24.1007C27.2555 23.6629 27.4744 23.127 27.4744 22.493C27.4744 21.8589 27.2555 21.323 26.8178 20.8852C26.38 20.4475 25.8441 20.2286 25.21 20.2286H23.8514V18.4171C23.8514 17.1641 23.4099 16.0961 22.5268 15.213C21.6436 14.3299 20.5756 13.8883 19.3227 13.8883C18.0697 13.8883 17.0017 14.3299 16.1186 15.213C15.2354 16.0961 14.7939 17.1641 14.7939 18.4171H14.341C13.4655 18.4171 12.7182 18.7265 12.0993 19.3455C11.4803 19.9644 11.1709 20.7116 11.1709 21.5872C11.1709 22.4628 11.4803 23.21 12.0993 23.8289C12.7182 24.4479 13.4655 24.7573 14.341 24.7573Z" fill="#2563EB"/>
<path d="M25.9097 14.8838L28.2533 12.076H26.4418L26.7702 9.5059L24.6756 12.5288H26.2494L25.9097 14.8838ZM24.7549 16.6047L25.2077 13.4346H22.9434L27.0192 7.54721H27.925L27.4721 11.1702H30.1894L25.6606 16.6047H24.7549Z" fill="#EAB308"/>
</svg>
