<svg width="14" height="13" viewBox="0 0 14 13" fill="none" xmlns="http://www.w3.org/2000/svg">
<path fill-rule="evenodd" clip-rule="evenodd" d="M7.60072 0.0573709C8.37028 -0.131999 9.20281 0.149307 9.62666 0.873533C9.73554 1.05956 9.85483 1.27644 9.98121 1.52611C9.09495 1.46758 7.78044 1.41219 5.97905 1.41219C4.96309 1.41219 4.10197 1.42981 3.3852 1.45567C4.73311 0.89329 6.20008 0.402036 7.60072 0.0573709ZM1.91259 12.8131C2.78066 12.8731 4.1139 12.933 5.97917 12.933C7.8444 12.933 9.17767 12.8731 10.0458 12.8131C11.002 12.7469 11.7562 12.0207 11.8347 11.0567C11.8497 10.8725 11.8645 10.6675 11.8784 10.441C11.6075 10.4488 11.2948 10.4539 10.9375 10.4539C10.4492 10.4539 10.0439 10.4445 9.71547 10.4313C8.65404 10.3888 7.79707 9.57603 7.74882 8.48689C7.73701 8.22062 7.72917 7.90519 7.72917 7.53719C7.72917 7.1692 7.73701 6.85376 7.74882 6.5875C7.79707 5.49835 8.65404 4.68562 9.71547 4.64307C10.0439 4.62989 10.4492 4.62052 10.9375 4.62052C11.2948 4.62052 11.6075 4.62554 11.8784 4.63339C11.8645 4.40685 11.8497 4.20187 11.8347 4.01771C11.7562 3.05372 11.002 2.32744 10.0458 2.26129C9.17767 2.20124 7.84443 2.14136 5.97917 2.14136C4.1139 2.14136 2.78066 2.20124 1.91259 2.26129C0.956375 2.32744 0.202108 3.05372 0.12362 4.01771C0.0600338 4.7987 0 5.95499 0 7.53719C0 9.1194 0.0600338 10.2757 0.12362 11.0567C0.202108 12.0207 0.956375 12.7469 1.91259 12.8131ZM8.62295 8.44815C8.65048 9.0692 9.12937 9.53213 9.75053 9.55704C10.0668 9.5697 10.4603 9.57886 10.9375 9.57886C11.4147 9.57886 11.8082 9.5697 12.1245 9.55704C12.7456 9.53213 13.2245 9.0692 13.252 8.44815C13.2632 8.19528 13.2708 7.89276 13.2708 7.53719C13.2708 7.18162 13.2632 6.8791 13.252 6.62623C13.2245 6.00518 12.7456 5.54225 12.1245 5.51737C11.8082 5.50468 11.4147 5.49552 10.9375 5.49552C10.4603 5.49552 10.0668 5.50468 9.75053 5.51734C9.12937 5.54225 8.65048 6.00518 8.62295 6.62623C8.61175 6.8791 8.60417 7.18162 8.60417 7.53719C8.60417 7.89276 8.61175 8.19528 8.62295 8.44815ZM10.6458 6.80802C10.8874 6.80802 11.0833 7.00391 11.0833 7.24552V7.82886C11.0833 8.07047 10.8874 8.26636 10.6458 8.26636C10.4042 8.26636 10.2083 8.07047 10.2083 7.82886V7.24552C10.2083 7.00391 10.4042 6.80802 10.6458 6.80802Z" fill="url(#paint0_linear_2360_2874)"/>
<defs>
<linearGradient id="paint0_linear_2360_2874" x1="6.63542" y1="0" x2="6.63542" y2="12.933" gradientUnits="userSpaceOnUse">
<stop stop-color="#BFD3FF"/>
<stop offset="1" stop-color="#2563EB"/>
</linearGradient>
</defs>
</svg>
