<svg width="18" height="18" viewBox="0 0 18 18" fill="none" xmlns="http://www.w3.org/2000/svg">
<mask id="path-1-inside-1_2360_3624" fill="white">
<path d="M0 8.775C0 3.9287 3.9287 0 8.775 0C13.6213 0 17.55 3.9287 17.55 8.775C17.55 13.6213 13.6213 17.55 8.775 17.55C3.9287 17.55 0 13.6213 0 8.775Z"/>
</mask>
<path d="M0 8.775M17.55 8.775M17.55 8.775M0 8.775M8.775 0M17.55 8.775M8.775 17.55M0 8.775M8.775 17.55V16.0875C4.73642 16.0875 1.4625 12.8136 1.4625 8.775H0H-1.4625C-1.4625 14.429 3.12099 19.0125 8.775 19.0125V17.55ZM17.55 8.775H16.0875C16.0875 12.8136 12.8136 16.0875 8.775 16.0875V17.55V19.0125C14.429 19.0125 19.0125 14.429 19.0125 8.775H17.55ZM8.775 0V1.4625C12.8136 1.4625 16.0875 4.73642 16.0875 8.775H17.55H19.0125C19.0125 3.12099 14.429 -1.4625 8.775 -1.4625V0ZM8.775 0V-1.4625C3.12099 -1.4625 -1.4625 3.12099 -1.4625 8.775H0H1.4625C1.4625 4.73642 4.73642 1.4625 8.775 1.4625V0Z" fill="#D1D5DB" mask="url(#path-1-inside-1_2360_3624)"/>
</svg>
