<svg width="13" height="13" viewBox="0 0 13 13" fill="none" xmlns="http://www.w3.org/2000/svg">
<path fill-rule="evenodd" clip-rule="evenodd" d="M3.64738 4.6461L8.26691 0.0265562C7.67947 0.0101266 7.0154 0 6.27083 0C4.25868 0 2.83424 0.0739696 1.92193 0.146367C0.962214 0.22253 0.222533 0.962209 0.14637 1.92194C0.0739696 2.83424 0 4.25868 0 6.27083C0 8.28298 0.0739696 9.70743 0.146367 10.6197C0.22253 11.5795 0.962209 12.3191 1.92193 12.3953C2.83424 12.4677 4.25868 12.5417 6.27083 12.5417C8.28298 12.5417 9.70743 12.4677 10.6197 12.3953C11.5795 12.3192 12.3191 11.5795 12.3953 10.6197C12.4677 9.70743 12.5417 8.28298 12.5417 6.27083C12.5417 5.52621 12.5315 4.86208 12.5151 4.27461L7.89548 8.89423C7.61895 9.17076 7.23654 9.39097 6.77772 9.43524C6.34629 9.47689 5.58976 9.51043 4.44742 9.43055C3.73141 9.38044 3.16114 8.8102 3.11106 8.09416C3.03115 6.95182 3.06469 6.19532 3.10634 5.76386C3.15064 5.30507 3.37085 4.92263 3.64738 4.6461ZM12.0065 3.54585C12.4305 3.12183 12.5952 2.50408 12.2634 2.00454C12.0839 1.7341 11.8318 1.41321 11.4801 1.06154C11.1284 0.709867 10.8075 0.45778 10.5371 0.278203C10.0375 -0.0535267 9.41981 0.111134 8.99579 0.535162L8.56053 0.970425C9.02431 1.25488 9.59639 1.68077 10.2286 2.31303C10.8609 2.94528 11.2868 3.51733 11.5712 3.9811L12.0065 3.54585ZM9.60992 2.93175C8.9357 2.25753 8.34884 1.85045 7.92155 1.60942L4.26609 5.26488C4.10745 5.42351 3.99887 5.62468 3.97728 5.84798C3.94074 6.22679 3.90708 6.93455 3.98393 8.03314C4.00359 8.31408 4.22756 8.53805 4.5085 8.5577C5.60709 8.63456 6.31485 8.6009 6.69363 8.56435C6.91696 8.54277 7.1181 8.43418 7.27676 8.27555L10.9322 4.62009C10.6912 4.19277 10.2841 3.60593 9.60992 2.93175Z" fill="url(#paint0_linear_2360_2880)"/>
<defs>
<linearGradient id="paint0_linear_2360_2880" x1="6.27083" y1="0" x2="6.27083" y2="12.5417" gradientUnits="userSpaceOnUse">
<stop stop-color="#BFD3FF"/>
<stop offset="1" stop-color="#2563EB"/>
</linearGradient>
</defs>
</svg>
