<svg width="14" height="14" viewBox="0 0 14 14" fill="none" xmlns="http://www.w3.org/2000/svg">
<g clip-path="url(#clip0_2323_3497)">
<path fill-rule="evenodd" clip-rule="evenodd" d="M13.5091 4.15625C13.4862 3.56119 13.4512 2.96665 13.4041 2.373C13.326 1.414 12.586 0.674042 11.627 0.596167C10.673 0.518583 9.15893 0.4375 7.00001 0.4375C6.21018 0.4375 5.50668 0.448292 4.88543 0.465792V4.15625H13.5091ZM2.37301 0.596167C2.77084 0.564083 3.26609 0.530833 3.86459 0.503417V4.15625H0.490886C0.520345 3.42504 0.558845 2.83354 0.596178 2.373C0.674053 1.414 1.41401 0.674042 2.37301 0.596167ZM0.596178 11.627C0.558845 11.1662 0.520345 10.575 0.491178 9.84375H3.86459V13.4966C3.3669 13.4744 2.86962 13.4435 2.37301 13.4038C1.41401 13.326 0.674053 12.586 0.596178 11.627ZM4.88543 9.84375V13.5342C5.50668 13.5517 6.21018 13.5625 7.00001 13.5625C9.15893 13.5625 10.673 13.4814 11.627 13.4038C12.586 13.326 13.326 12.586 13.4038 11.627C13.4415 11.1662 13.4797 10.575 13.5091 9.84375H4.88543ZM13.5625 7C13.5625 7.66879 13.5546 8.27546 13.5418 8.82292H4.88543V5.17708H13.5418C13.5546 5.72454 13.5625 6.33121 13.5625 7ZM0.45822 5.17708C0.444085 5.78462 0.437182 6.3923 0.437511 7C0.437511 7.66879 0.445386 8.27546 0.45822 8.82292H3.86459V5.17708H0.45822Z" fill="url(#paint0_linear_2323_3497)"/>
</g>
<defs>
<linearGradient id="paint0_linear_2323_3497" x1="0.437501" y1="-4.69525" x2="13.5625" y2="15.718" gradientUnits="userSpaceOnUse">
<stop stop-color="#6BE9FF"/>
<stop offset="1" stop-color="#3B6AE6"/>
</linearGradient>
<clipPath id="clip0_2323_3497">
<rect width="14" height="14" fill="white"/>
</clipPath>
</defs>
</svg>
