<svg width="14" height="14" viewBox="0 0 14 14" fill="none" xmlns="http://www.w3.org/2000/svg">
<g clip-path="url(#clip0_2323_3505)">
<path fill-rule="evenodd" clip-rule="evenodd" d="M7 0.4375C4.14555 0.4375 2.6075 0.643743 1.80155 0.826557C1.11161 0.983057 0.718349 1.56354 0.645137 2.18681C0.55459 2.95767 0.4375 4.24894 0.4375 5.775C0.4375 5.83278 0.437669 5.89024 0.437996 5.94735C0.454116 8.75379 1.93881 11.3777 4.4378 12.7006C4.88524 12.9375 5.33928 13.1502 5.76788 13.3045C6.19103 13.4568 6.61695 13.5625 7 13.5625C7.38305 13.5625 7.80897 13.4568 8.23212 13.3045C8.66072 13.1502 9.11476 12.9375 9.5622 12.7006C12.0612 11.3777 13.5459 8.75382 13.562 5.94735C13.5623 5.89024 13.5625 5.83278 13.5625 5.775C13.5625 4.24894 13.4454 2.95767 13.3549 2.18681C13.2817 1.56354 12.8884 0.983057 12.1985 0.826557C11.3925 0.643743 9.85445 0.4375 7 0.4375ZM4.03337 2.67384C4.59524 2.57247 5.51402 2.47917 7 2.47917C8.48598 2.47917 9.40476 2.57247 9.96663 2.67384C10.6695 2.80064 11.066 3.38362 11.1276 4.00747C11.1776 4.5131 11.2292 5.236 11.2292 6.06667C11.2292 7.76131 10.4057 9.32056 9.033 10.3022C8.70187 10.5391 8.35161 10.7645 8.01666 10.9325C7.6932 11.0947 7.33434 11.2292 7 11.2292C6.66566 11.2292 6.3068 11.0947 5.98334 10.9325C5.64839 10.7645 5.29812 10.5391 4.967 10.3022C3.59427 9.32056 2.77083 7.76131 2.77083 6.06667C2.77083 5.236 2.82242 4.5131 2.87237 4.00747C2.93399 3.38362 3.33054 2.80064 4.03337 2.67384ZM7 3.35417C5.54668 3.35417 4.68323 3.44572 4.18871 3.53494C3.95328 3.57741 3.77525 3.76857 3.74313 4.09348C3.6953 4.57759 3.64583 5.27106 3.64583 6.06667C3.64583 7.47192 4.32725 8.76902 5.47598 9.59053C5.78763 9.81339 6.09685 10.0106 6.37554 10.1503C6.66575 10.2958 6.87476 10.3542 7 10.3542C7.12524 10.3542 7.33425 10.2958 7.62446 10.1503C7.90315 10.0106 8.21237 9.81339 8.52402 9.59053C9.67275 8.76902 10.3542 7.47192 10.3542 6.06667C10.3542 5.27106 10.3047 4.57759 10.2569 4.09348C10.2248 3.76857 10.0467 3.57741 9.81129 3.53494C9.31677 3.44572 8.45332 3.35417 7 3.35417Z" fill="url(#paint0_linear_2323_3505)"/>
</g>
<defs>
<linearGradient id="paint0_linear_2323_3505" x1="0.4375" y1="0.4375" x2="7" y2="13.5625" gradientUnits="userSpaceOnUse">
<stop stop-color="#6BE9FF"/>
<stop offset="1" stop-color="#2563EB"/>
</linearGradient>
<clipPath id="clip0_2323_3505">
<rect width="14" height="14" fill="white"/>
</clipPath>
</defs>
</svg>
