<svg width="14" height="14" viewBox="0 0 14 14" fill="none" xmlns="http://www.w3.org/2000/svg">
<g clip-path="url(#clip0_2323_3511)">
<path fill-rule="evenodd" clip-rule="evenodd" d="M4.08488 5.66661L8.70441 1.04706C8.11697 1.03063 7.4529 1.02051 6.70833 1.02051C4.69618 1.02051 3.27174 1.09448 2.35943 1.16687C1.39971 1.24304 0.660033 1.98272 0.58387 2.94245C0.51147 3.85475 0.4375 5.27919 0.4375 7.29134C0.4375 9.30349 0.51147 10.7279 0.583867 11.6402C0.66003 12.6 1.39971 13.3396 2.35943 13.4158C3.27174 13.4882 4.69618 13.5622 6.70833 13.5622C8.72048 13.5622 10.1449 13.4882 11.0572 13.4158C12.017 13.3397 12.7566 12.6 12.8328 11.6402C12.9052 10.7279 12.9792 9.30349 12.9792 7.29134C12.9792 6.54672 12.969 5.88259 12.9526 5.29512L8.33298 9.91474C8.05645 10.1913 7.67404 10.4115 7.21522 10.4558C6.78379 10.4974 6.02726 10.5309 4.88492 10.4511C4.16891 10.4009 3.59864 9.83071 3.54856 9.11467C3.46865 7.97232 3.50219 7.21583 3.54384 6.78437C3.58814 6.32557 3.80835 5.94314 4.08488 5.66661ZM12.444 4.56636C12.868 4.14233 13.0327 3.52458 12.7009 3.02505C12.5214 2.75461 12.2693 2.43372 11.9176 2.08205C11.5659 1.73037 11.245 1.47829 10.9746 1.29871C10.475 0.966981 9.85731 1.13164 9.43329 1.55567L8.99803 1.99093C9.46181 2.27538 10.0339 2.70127 10.6661 3.33354C11.2984 3.96579 11.7243 4.53783 12.0087 5.00161L12.444 4.56636ZM10.0474 3.95225C9.3732 3.27804 8.78634 2.87096 8.35905 2.62993L4.70359 6.28538C4.54495 6.44402 4.43637 6.64518 4.41478 6.86848C4.37824 7.2473 4.34458 7.95506 4.42143 9.05365C4.44109 9.33458 4.66506 9.55855 4.946 9.57821C6.04459 9.65507 6.75235 9.62141 7.13113 9.58486C7.35446 9.56328 7.5556 9.45469 7.71426 9.29605L11.3697 5.6406C11.1287 5.21327 10.7216 4.62644 10.0474 3.95225Z" fill="url(#paint0_linear_2323_3511)"/>
</g>
<defs>
<linearGradient id="paint0_linear_2323_3511" x1="1.27102" y1="1.02051" x2="8.32493" y2="11.2563" gradientUnits="userSpaceOnUse">
<stop stop-color="#6BE9FF"/>
<stop offset="1" stop-color="#2563EB"/>
</linearGradient>
<clipPath id="clip0_2323_3511">
<rect width="14" height="14" fill="white"/>
</clipPath>
</defs>
</svg>
