<svg width="175" height="20" viewBox="0 0 175 20" fill="none" xmlns="http://www.w3.org/2000/svg">
<path d="M15.6268 2.26663L17.6535 17.36H13.0669L12.5335 13.2533H6.13352L4.34685 17.36H0.000182385L5.89352 3.01329L5.12018 2.26663H15.6268ZM9.73352 4.82663L7.17352 10.6933H12.2935L11.5202 4.82663H9.73352ZM27.3081 2.26663L24.9881 17.36H20.1348L21.9214 3.27996L21.1481 2.26663H27.3081ZM36.4585 3.83996L36.5652 3.03996H31.4985L31.8452 0.506626H53.1252L52.7785 3.03996H47.7119L47.6052 3.83996H52.1652L51.3385 9.62663H31.0719L31.8985 3.83996H36.4585ZM50.2719 10.1333L50.1652 10.9066H51.6852L51.3119 13.44H49.7919L49.6319 14.6933L44.8852 16.5333L51.0452 19.2H41.7652L39.9785 18.4266L37.9785 19.2H28.6985L35.6319 16.5333L31.3919 14.6933L31.5519 13.44H30.0319L30.4052 10.9066H31.9252L32.0319 10.1333H36.5919L36.4852 10.9066H45.6052L45.7119 10.1333H50.2719ZM40.4852 14.88L44.1652 13.44H37.2319L40.4852 14.88ZM45.8185 5.57329L45.5519 7.59996H47.0719L47.3652 5.57329H45.8185ZM37.4452 7.59996L37.7119 5.57329H36.2185L35.9252 7.59996H37.4452ZM40.9919 7.59996H42.0052L42.2719 5.57329H41.2585L40.9919 7.59996ZM41.4985 3.83996H42.5119L42.6452 3.03996H41.6319L41.4985 3.83996ZM64.0031 3.78663L64.1098 3.03996H56.5364L56.8031 0.986626H64.3764L63.5498 -4.06405e-05H69.5498L69.3898 0.986626H77.0431L76.7764 3.03996H69.0964L68.9898 3.78663H76.1364L75.8698 5.62663H68.7231L68.6431 6.31996H76.7764L76.4564 8.63996H64.1898L61.6298 9.62663H75.3364L75.0431 11.6533H64.7764L61.1764 12.6133H70.0564L69.9231 11.9466H74.9898L75.6031 14.9333H70.5364L70.4831 14.6666H67.5231L67.0698 18C67.0164 18.3555 66.7942 18.64 66.4031 18.8533C66.0298 19.0666 65.5853 19.1733 65.0698 19.1733H60.2964L62.5631 17.4933L62.9631 14.6666H55.3364L55.6298 12.6133L59.2031 11.6533H55.7898L56.0831 9.57329L58.3498 8.63996H55.2031L55.5231 6.31996H63.6564L63.7364 5.62663H56.6431L56.9098 3.78663H64.0031ZM58.3764 18.6933H53.8164L56.8298 15.3866H61.3631L58.3764 18.6933ZM75.0431 18.72H70.4831L68.9364 15.4666H73.4964L75.0431 18.72ZM78.2677 13.68L82.561 12.3733L78.4544 12.4266L78.7477 10.4L101.148 9.94663L100.828 12.0533L91.681 12.2133L91.601 12.64H93.3877L95.3077 14.5866L96.4277 13.1466H100.694L98.2677 16.24H96.961L99.841 19.1466H95.7877L91.361 14.4533L90.6944 19.2H86.641L87.0677 16.1066L77.521 19.1466L77.8677 16.72L87.441 13.5466L87.521 13.0133L77.8944 16.24L78.2677 13.68ZM90.081 8.90663L89.0944 8.95996L89.0144 9.62663H85.4144L85.4944 9.11996L78.881 9.38663L79.201 7.25329L80.161 7.22663L80.881 2.23996H79.8944L80.1344 0.47996H91.2544L91.0144 2.23996H90.0544L89.4144 6.82663L90.3744 6.77329L90.081 8.90663ZM95.1477 3.30663L96.3477 4.58663L98.3744 2.79996H91.4677L91.7877 0.506626H102.428L102.028 3.46663L98.3477 6.71996L101.121 9.62663H96.721L95.9477 8.82663L95.041 9.62663H90.5877L93.8944 6.71996L91.3077 4.05329L91.4144 3.30663H95.1477ZM84.401 3.01329H86.3477L86.4544 2.23996H84.5077L84.401 3.01329ZM84.1077 5.03996H86.0544L86.1344 4.50663H84.1877L84.1077 5.03996ZM83.8144 7.06663L85.7877 6.98663L85.841 6.53329H83.8944L83.8144 7.06663ZM125.386 10.64L124.239 18.7466H102.959L104.106 10.64H125.386ZM120.212 9.62663L119.759 7.86663H110.479L109.546 9.62663H103.732L108.159 1.22663L107.546 0.506626H123.759L126.026 9.62663H120.212ZM119.519 16.2133L119.946 13.1733H108.799L108.372 16.2133H119.519ZM111.839 5.33329H119.119L118.559 3.03996H113.066L111.839 5.33329ZM150.477 0.506626L150.13 3.03996H142.504L141.597 9.62663H150.21L149.864 12.16H141.25L140.264 19.2H135.197L136.184 12.16H127.57L127.917 9.62663H136.53L137.437 3.03996H129.864L130.21 0.506626H150.477ZM144.424 4.05329H148.984L147.33 8.61329H142.77L144.424 4.05329ZM135.677 8.61329H131.117L130.744 4.05329H135.304L135.677 8.61329ZM173.808 9.62663L172.528 18.6666H152.928L154.208 9.62663H173.808ZM172.315 1.03996L174.208 8.61329H169.888L169.781 8.21329H154.341L154.608 6.29329L158.448 0.639959L157.808 0.0266257H164.395L160.395 5.75996H169.168L167.995 1.03996H172.315ZM167.861 16.1333L168.421 12.1333H158.821L158.261 16.1333H167.861Z" fill="#31373D"/>
</svg>
