<svg width="14" height="14" viewBox="0 0 14 14" fill="none" xmlns="http://www.w3.org/2000/svg">
<path fill-rule="evenodd" clip-rule="evenodd" d="M13.0716 3.71875C13.0487 3.12369 13.0137 2.52915 12.9666 1.9355C12.8885 0.9765 12.1485 0.236542 11.1895 0.158667C10.2355 0.0810833 8.72143 0 6.56251 0C5.77268 0 5.06918 0.0107917 4.44793 0.0282917V3.71875H13.0716ZM1.93551 0.158667C2.33334 0.126583 2.82859 0.0933333 3.42709 0.0659166V3.71875H0.0533863C0.0828446 2.98754 0.121345 2.39604 0.158678 1.9355C0.236553 0.9765 0.976511 0.236542 1.93551 0.158667ZM0.158678 11.1895C0.121345 10.7287 0.0828446 10.1375 0.053678 9.40625H3.42709V13.0591C2.9294 13.0369 2.43212 13.006 1.93551 12.9663C0.976511 12.8885 0.236553 12.1485 0.158678 11.1895ZM4.44793 9.40625V13.0967C5.06918 13.1142 5.77268 13.125 6.56251 13.125C8.72143 13.125 10.2355 13.0439 11.1895 12.9663C12.1485 12.8885 12.8885 12.1485 12.9663 11.1895C13.004 10.7287 13.0422 10.1375 13.0716 9.40625H4.44793ZM13.125 6.5625C13.125 7.23129 13.1171 7.83796 13.1043 8.38542H4.44793V4.73958H13.1043C13.1171 5.28704 13.125 5.89371 13.125 6.5625ZM0.0207196 4.73958C0.00658481 5.34712 -0.000318453 5.9548 1.12733e-05 6.5625C1.12733e-05 7.23129 0.00788627 7.83796 0.0207196 8.38542H3.42709V4.73958H0.0207196Z" fill="url(#paint0_linear_2360_2866)"/>
<defs>
<linearGradient id="paint0_linear_2360_2866" x1="6.56251" y1="0" x2="6.56251" y2="13.125" gradientUnits="userSpaceOnUse">
<stop stop-color="#BFD3FF"/>
<stop offset="1" stop-color="#2563EB"/>
</linearGradient>
</defs>
</svg>
