<svg width="66" height="21" viewBox="0 0 66 21" fill="none" xmlns="http://www.w3.org/2000/svg">
<path d="M0 0H48C57.6926 0 65.55 7.85741 65.55 17.55V20.775H11.7C5.23826 20.775 0 15.5367 0 9.075V0Z" fill="#DBEAFE"/>
<path d="M11.1154 8.30745H12.2674V16.3835H11.1154V8.30745ZM11.6914 8.30745H18.3874V11.5115H11.6914V10.5395H17.2594V9.27945H11.6914V8.30745ZM11.7514 12.4955H18.8194V16.3235H17.6554V13.5035H11.7514V12.4955ZM11.8114 14.8715H17.9914V15.8675H11.8114V14.8715ZM9.59139 6.33945H19.9354V8.57145H18.7354V7.40745H10.7434V8.57145H9.59139V6.33945ZM14.0434 5.43945L15.1954 5.18745C15.3074 5.39545 15.4154 5.63145 15.5194 5.89545C15.6314 6.15945 15.7074 6.38345 15.7474 6.56745L14.5354 6.85545C14.5034 6.67145 14.4394 6.44745 14.3434 6.18345C14.2474 5.91145 14.1474 5.66345 14.0434 5.43945ZM21.5074 7.27545H32.0794V8.36745H21.5074V7.27545ZM25.3594 10.0955H30.0634V11.1995H25.3594V10.0955ZM29.7634 10.0955H30.9514C30.9514 10.0955 30.9474 10.1275 30.9394 10.1915C30.9394 10.2555 30.9354 10.3275 30.9274 10.4075C30.9274 10.4875 30.9234 10.5555 30.9154 10.6115C30.8354 11.7235 30.7514 12.6315 30.6634 13.3355C30.5754 14.0315 30.4754 14.5715 30.3634 14.9555C30.2514 15.3315 30.1154 15.6035 29.9554 15.7715C29.7954 15.9475 29.6234 16.0675 29.4394 16.1315C29.2634 16.1955 29.0514 16.2395 28.8034 16.2635C28.5794 16.2795 28.2834 16.2835 27.9154 16.2755C27.5474 16.2755 27.1594 16.2635 26.7514 16.2395C26.7434 16.0715 26.7034 15.8795 26.6314 15.6635C26.5594 15.4555 26.4634 15.2795 26.3434 15.1355C26.7674 15.1675 27.1674 15.1875 27.5434 15.1955C27.9274 15.2035 28.2074 15.2075 28.3834 15.2075C28.5114 15.2075 28.6194 15.1995 28.7074 15.1835C28.7954 15.1675 28.8794 15.1275 28.9594 15.0635C29.0794 14.9515 29.1874 14.7195 29.2834 14.3675C29.3874 14.0075 29.4754 13.4955 29.5474 12.8315C29.6274 12.1675 29.6994 11.3155 29.7634 10.2755V10.0955ZM24.6994 7.94745H25.9594C25.9274 8.57945 25.8794 9.21945 25.8154 9.86745C25.7514 10.5075 25.6474 11.1395 25.5034 11.7635C25.3594 12.3875 25.1514 12.9875 24.8794 13.5635C24.6074 14.1315 24.2434 14.6595 23.7874 15.1475C23.3394 15.6355 22.7794 16.0635 22.1074 16.4315C22.0194 16.2875 21.8954 16.1275 21.7354 15.9515C21.5754 15.7755 21.4194 15.6315 21.2674 15.5195C21.8994 15.1915 22.4194 14.8115 22.8274 14.3795C23.2434 13.9395 23.5714 13.4635 23.8114 12.9515C24.0514 12.4395 24.2314 11.9035 24.3514 11.3435C24.4714 10.7835 24.5514 10.2195 24.5914 9.65145C24.6394 9.07545 24.6754 8.50745 24.6994 7.94745ZM25.9354 5.57145L27.0394 5.13945C27.1994 5.41945 27.3634 5.72345 27.5314 6.05145C27.6994 6.37945 27.8274 6.66345 27.9154 6.90345L26.7514 7.40745C26.6794 7.15945 26.5634 6.86345 26.4034 6.51945C26.2434 6.17545 26.0874 5.85945 25.9354 5.57145ZM33.1114 11.5235C33.5914 11.4035 34.1674 11.2475 34.8394 11.0555C35.5194 10.8555 36.2074 10.6515 36.9034 10.4435L37.0594 11.4755C36.4274 11.6755 35.7874 11.8755 35.1394 12.0755C34.4914 12.2755 33.9034 12.4555 33.3754 12.6155L33.1114 11.5235ZM33.2194 7.57545H37.0594V8.63145H33.2194V7.57545ZM34.6714 5.27145H35.7754V15.0635C35.7754 15.3515 35.7394 15.5795 35.6674 15.7475C35.6034 15.9155 35.4874 16.0475 35.3194 16.1435C35.1594 16.2395 34.9474 16.2995 34.6834 16.3235C34.4274 16.3555 34.1074 16.3675 33.7234 16.3595C33.7074 16.2155 33.6674 16.0355 33.6034 15.8195C33.5474 15.6115 33.4794 15.4235 33.3994 15.2555C33.6394 15.2635 33.8594 15.2715 34.0594 15.2795C34.2674 15.2795 34.4074 15.2755 34.4794 15.2675C34.5514 15.2675 34.5994 15.2515 34.6234 15.2195C34.6554 15.1875 34.6714 15.1315 34.6714 15.0515V5.27145ZM38.2954 9.75945H43.8754V10.7675H38.2954V9.75945ZM38.3074 12.1355H43.8514V13.1435H38.3074V12.1355ZM38.3554 14.5715H44.2834V15.6035H38.3554V14.5715ZM38.7994 5.33145L39.8674 5.60745C39.6514 6.25545 39.3954 6.89945 39.0994 7.53945C38.8114 8.17145 38.4954 8.76745 38.1514 9.32745C37.8074 9.87945 37.4474 10.3635 37.0714 10.7795C37.0154 10.7075 36.9354 10.6195 36.8314 10.5155C36.7354 10.4115 36.6314 10.3075 36.5194 10.2035C36.4154 10.0995 36.3234 10.0155 36.2434 9.95145C36.6034 9.58345 36.9434 9.15545 37.2634 8.66745C37.5834 8.17145 37.8714 7.63945 38.1274 7.07145C38.3914 6.50345 38.6154 5.92345 38.7994 5.33145ZM39.0514 7.37145H44.0434V8.41545H39.0514V16.4075H37.9594V8.25945L38.8234 7.37145H39.0514ZM40.8394 7.92345H41.9074V15.1235H40.8394V7.92345ZM40.4794 5.73945L41.4514 5.35545C41.6274 5.61945 41.7954 5.91145 41.9554 6.23145C42.1154 6.55145 42.2314 6.82745 42.3034 7.05945L41.2834 7.51545C41.2114 7.26745 41.0994 6.97945 40.9474 6.65145C40.7954 6.31545 40.6394 6.01145 40.4794 5.73945ZM45.4714 8.55945H56.0314V9.57945H45.4714V8.55945ZM49.8394 10.4315H54.6394V11.3315H49.8394V10.4315ZM48.9154 12.8195H56.2114V13.7795H48.9154V12.8195ZM49.2154 7.45545L50.3074 7.73145C49.8194 8.96345 49.1874 10.0715 48.4114 11.0555C47.6434 12.0395 46.7714 12.8515 45.7954 13.4915C45.7554 13.4115 45.6874 13.3155 45.5914 13.2035C45.5034 13.0835 45.4074 12.9675 45.3034 12.8555C45.2074 12.7355 45.1234 12.6395 45.0514 12.5675C45.9874 12.0155 46.8114 11.2995 47.5234 10.4195C48.2434 9.53145 48.8074 8.54345 49.2154 7.45545ZM52.1314 12.0995H53.2234V15.2675C53.2234 15.5315 53.1874 15.7355 53.1154 15.8795C53.0514 16.0315 52.9194 16.1475 52.7194 16.2275C52.5194 16.2995 52.2674 16.3435 51.9634 16.3595C51.6674 16.3755 51.3034 16.3795 50.8714 16.3715C50.8474 16.2275 50.7994 16.0635 50.7274 15.8795C50.6554 15.7035 50.5834 15.5475 50.5114 15.4115C50.8154 15.4195 51.1034 15.4235 51.3754 15.4235C51.6474 15.4315 51.8234 15.4315 51.9034 15.4235C51.9914 15.4155 52.0514 15.4035 52.0834 15.3875C52.1154 15.3635 52.1314 15.3115 52.1314 15.2315V12.0995ZM54.2434 10.4315H54.5074L54.7234 10.3715L55.3954 10.9235C55.0274 11.2595 54.5994 11.5915 54.1114 11.9195C53.6234 12.2395 53.1474 12.5075 52.6834 12.7235C52.6274 12.6275 52.5394 12.5195 52.4194 12.3995C52.3074 12.2715 52.2114 12.1715 52.1314 12.0995C52.3874 11.9795 52.6514 11.8355 52.9234 11.6675C53.1954 11.4995 53.4474 11.3235 53.6794 11.1395C53.9114 10.9555 54.0994 10.7875 54.2434 10.6355V10.4315ZM48.0154 5.27145H49.1194V7.99545H48.0154V5.27145ZM52.4434 5.25945H53.5594V7.99545H52.4434V5.25945ZM45.3994 6.08745H56.1394V7.09545H45.3994V6.08745ZM47.1154 11.2595L47.8474 10.5035L48.1834 10.6115V16.3955H47.1154V11.2595Z" fill="#31373D"/>
</svg>
