<svg width="36" height="15" viewBox="0 0 36 15" fill="none" xmlns="http://www.w3.org/2000/svg">
<rect width="35.7773" height="14.0938" rx="4" fill="url(#paint0_linear_2323_3522)"/>
<path d="M7.35867 10.5469V3.17687H8.54867L10.9887 7.50687L11.7587 9.05687H11.8087C11.7753 8.68354 11.7387 8.28354 11.6987 7.85687C11.6653 7.43021 11.6487 7.01687 11.6487 6.61687V3.17687H12.7587V10.5469H11.5687L9.12867 6.20687L8.35867 4.66688H8.31867C8.34534 5.04687 8.37534 5.44354 8.40867 5.85687C8.44201 6.27021 8.45867 6.68021 8.45867 7.08687V10.5469H7.35867ZM14.7024 10.5469V3.17687H19.0524V4.15687H15.8624V6.20687H18.5624V7.18687H15.8624V9.55687H19.1624V10.5469H14.7024ZM21.4485 10.5469L19.9585 3.17687H21.1485L21.8385 7.00687C21.9052 7.40021 21.9718 7.79354 22.0385 8.18687C22.1052 8.58021 22.1718 8.97687 22.2385 9.37687H22.2785C22.3585 8.97687 22.4385 8.58021 22.5185 8.18687C22.6052 7.79354 22.6918 7.40021 22.7785 7.00687L23.7185 3.17687H24.7485L25.6985 7.00687C25.7852 7.39354 25.8685 7.78687 25.9485 8.18687C26.0285 8.58021 26.1118 8.97687 26.1985 9.37687H26.2485C26.3152 8.97687 26.3785 8.58021 26.4385 8.18687C26.4985 7.79354 26.5585 7.40021 26.6185 7.00687L27.3185 3.17687H28.4285L26.9785 10.5469H25.5485L24.5585 6.45687C24.4985 6.16354 24.4385 5.88021 24.3785 5.60687C24.3252 5.32687 24.2718 5.04687 24.2185 4.76687H24.1785C24.1252 5.04687 24.0685 5.32687 24.0085 5.60687C23.9485 5.88021 23.8885 6.16354 23.8285 6.45687L22.8585 10.5469H21.4485Z" fill="white"/>
<defs>
<linearGradient id="paint0_linear_2323_3522" x1="-13.9301" y1="1.27339e-07" x2="35.7773" y2="8.58848" gradientUnits="userSpaceOnUse">
<stop stop-color="#65E8FF"/>
<stop offset="1" stop-color="#4192FF"/>
</linearGradient>
</defs>
</svg>
